<svg xmlns="http://www.w3.org/2000/svg" viewBox="0 0 478 1466.5" width="478" height="1466.5" role="img" aria-label="Perlu Mengoreksi Pembukuan: Kapan Memakai Jurnal Manual?" font-family="Helvetica, Arial, sans-serif">
<!-- source: alur.json sha256:1127c668bda75572 (dibuat oleh scripts/guide/build_flow_diagrams.py; jangan diedit tangan) -->
<title>Perlu Mengoreksi Pembukuan: Kapan Memakai Jurnal Manual?</title>
<rect width="100%" height="100%" fill="#ffffff"/>
<rect x="134" y="18" width="210" height="43" rx="18" fill="#1a2b4a" stroke="#1a2b4a" stroke-width="1.4"/>
<text x="239" y="36.5" font-size="10.5" font-weight="bold" fill="#ffffff" text-anchor="middle">Ada angka pembukuan yang perlu</text>
<text x="239" y="50" font-size="10.5" font-weight="bold" fill="#ffffff" text-anchor="middle">dicatat atau dikoreksi</text>
<polyline points="239,61 239,84" fill="none" stroke="#444444" stroke-width="1.4"/>
<polygon points="239,89 234.5,81 243.5,81" fill="#444444" stroke="#444444" stroke-width="0.5" stroke-linejoin="round"/>
<polygon points="239,89 389,124 239,159 89,124" fill="#fff6cf" stroke="#8a6d00" stroke-width="1.4" stroke-linejoin="round"/>
<text x="239" y="121" font-size="10" font-weight="bold" fill="#3d3000" text-anchor="middle">Ini uang masuk, uang keluar,</text>
<text x="239" y="134" font-size="10" font-weight="bold" fill="#3d3000" text-anchor="middle">atau selisih saldo bank?</text>
<polyline points="239,159 239,175" fill="none" stroke="#444444" stroke-width="1.4"/>
<polyline points="123,175 355,175" fill="none" stroke="#444444" stroke-width="1.4"/>
<polyline points="123,175 123,204" fill="none" stroke="#444444" stroke-width="1.4"/>
<polygon points="123,209 118.5,201 127.5,201" fill="#444444" stroke="#444444" stroke-width="0.5" stroke-linejoin="round"/>
<rect x="18" y="209" width="210" height="95.5" rx="8" fill="#eef2f8" stroke="#1a2b4a" stroke-width="1.4"/>
<text x="28" y="222" font-size="7" font-weight="bold" fill="#1a2b4a" text-anchor="start">ANDA</text>
<text x="28" y="238.5" font-size="10.5" font-weight="bold" fill="#111111" text-anchor="start">Uang masuk, keluar, atau pindah</text>
<text x="28" y="252" font-size="10.5" font-weight="bold" fill="#111111" text-anchor="start">rekening: pakai menu aslinya</text>
<text x="28" y="267" font-size="9" fill="#1a4d8f" text-anchor="start">Menu: Penjualan &gt; Invoice, Pembelian &gt;</text>
<text x="28" y="279" font-size="9" fill="#1a4d8f" text-anchor="start">Beban, atau Kas &amp; Bank &gt; Transfer</text>
<text x="28" y="294" font-size="8.6" font-style="italic" fill="#555555" text-anchor="start">Jurnal manual tidak mengubah saldo rekening</text>
<polyline points="123,304.5 123,327.5" fill="none" stroke="#444444" stroke-width="1.4"/>
<polygon points="123,332.5 118.5,324.5 127.5,324.5" fill="#444444" stroke="#444444" stroke-width="0.5" stroke-linejoin="round"/>
<rect x="18" y="332.5" width="210" height="118" rx="8" fill="#eef2f8" stroke="#1a2b4a" stroke-width="1.4"/>
<text x="28" y="345.5" font-size="7" font-weight="bold" fill="#1a2b4a" text-anchor="start">ANDA</text>
<text x="28" y="362" font-size="10.5" font-weight="bold" fill="#111111" text-anchor="start">Biaya admin bank belum tercatat:</text>
<text x="28" y="375.5" font-size="10.5" font-weight="bold" fill="#111111" text-anchor="start">Penyesuaian Lanjutan</text>
<text x="28" y="390.5" font-size="9" fill="#1a4d8f" text-anchor="start">Menu: Akuntansi &gt; Penyesuaian Lanjutan</text>
<text x="28" y="405.5" font-size="8.6" font-style="italic" fill="#555555" text-anchor="start">Langsung diposting tanpa draf dan tanpa</text>
<text x="28" y="417" font-size="8.6" font-style="italic" fill="#555555" text-anchor="start">tombol batal. Bunga bank dan pendapatan lain</text>
<text x="28" y="428.5" font-size="8.6" font-style="italic" fill="#555555" text-anchor="start">lewat Penjualan &gt; Catat Pendapatan, bukan di</text>
<text x="28" y="440" font-size="8.6" font-style="italic" fill="#555555" text-anchor="start">sini</text>
<polyline points="123,450.5 123,473.5" fill="none" stroke="#444444" stroke-width="1.4"/>
<polygon points="123,478.5 118.5,470.5 127.5,470.5" fill="#444444" stroke="#444444" stroke-width="0.5" stroke-linejoin="round"/>
<rect x="18" y="478.5" width="210" height="29.5" rx="14.75" fill="#2f5233" stroke="#2f5233" stroke-width="1.4"/>
<text x="123" y="497" font-size="10.5" font-weight="bold" fill="#ffffff" text-anchor="middle">Jurnal manual tidak diperlukan</text>
<rect x="111.8" y="184" width="22.4" height="15" rx="7.5" fill="#ffffff" stroke="#8a6d00" stroke-width="1"/>
<text x="123" y="195" font-size="8.5" font-weight="bold" fill="#3d3000" text-anchor="middle">Ya</text>
<polyline points="355,175 355,204" fill="none" stroke="#444444" stroke-width="1.4"/>
<polygon points="355,209 350.5,201 359.5,201" fill="#444444" stroke="#444444" stroke-width="0.5" stroke-linejoin="round"/>
<rect x="250" y="209" width="210" height="81.5" rx="8" fill="#eef2f8" stroke="#1a2b4a" stroke-width="1.4"/>
<text x="260" y="222" font-size="7" font-weight="bold" fill="#1a2b4a" text-anchor="start">ANDA</text>
<text x="260" y="238.5" font-size="10.5" font-weight="bold" fill="#111111" text-anchor="start">Buka Jurnal Manual</text>
<text x="260" y="253.5" font-size="9" fill="#1a4d8f" text-anchor="start">Menu: Akuntansi &gt; Jurnal &gt; Jurnal Manual</text>
<text x="260" y="268.5" font-size="8.6" font-style="italic" fill="#555555" text-anchor="start">Hanya OWNER dan Accountant yang bisa</text>
<text x="260" y="280" font-size="8.6" font-style="italic" fill="#555555" text-anchor="start">membuat draf</text>
<polyline points="355,290.5 355,313.5" fill="none" stroke="#444444" stroke-width="1.4"/>
<polygon points="355,318.5 350.5,310.5 359.5,310.5" fill="#444444" stroke="#444444" stroke-width="0.5" stroke-linejoin="round"/>
<rect x="250" y="318.5" width="210" height="80" rx="8" fill="#eef2f8" stroke="#1a2b4a" stroke-width="1.4"/>
<text x="260" y="331.5" font-size="7" font-weight="bold" fill="#1a2b4a" text-anchor="start">ANDA</text>
<text x="260" y="348" font-size="10.5" font-weight="bold" fill="#111111" text-anchor="start">Isi Jenis Jurnal, Tanggal,</text>
<text x="260" y="361.5" font-size="10.5" font-weight="bold" fill="#111111" text-anchor="start">Penjelasan, dan baris jurnal</text>
<text x="260" y="376.5" font-size="8.6" font-style="italic" fill="#555555" text-anchor="start">Satu sisi per baris; total debit harus sama</text>
<text x="260" y="388" font-size="8.6" font-style="italic" fill="#555555" text-anchor="start">dengan total kredit</text>
<polyline points="355,398.5 355,421.5" fill="none" stroke="#444444" stroke-width="1.4"/>
<polygon points="355,426.5 350.5,418.5 359.5,418.5" fill="#444444" stroke="#444444" stroke-width="0.5" stroke-linejoin="round"/>
<rect x="250" y="426.5" width="210" height="66.5" rx="8" fill="#eef2f8" stroke="#1a2b4a" stroke-width="1.4"/>
<text x="260" y="439.5" font-size="7" font-weight="bold" fill="#1a2b4a" text-anchor="start">ANDA</text>
<text x="260" y="456" font-size="10.5" font-weight="bold" fill="#111111" text-anchor="start">Simpan sebagai Draf</text>
<text x="260" y="471" font-size="8.6" font-style="italic" fill="#555555" text-anchor="start">Draf belum mengubah laporan dan belum</text>
<text x="260" y="482.5" font-size="8.6" font-style="italic" fill="#555555" text-anchor="start">bernomor</text>
<rect x="301.29" y="184" width="107.42" height="15" rx="7.5" fill="#ffffff" stroke="#8a6d00" stroke-width="1"/>
<text x="355" y="195" font-size="8.5" font-weight="bold" fill="#3d3000" text-anchor="middle">Bukan, koreksi lanjutan</text>
<polyline points="123,508 123,528" fill="none" stroke="#444444" stroke-width="1.4"/>
<polyline points="355,493 355,528" fill="none" stroke="#444444" stroke-width="1.4"/>
<polyline points="123,528 355,528" fill="none" stroke="#444444" stroke-width="1.4"/>
<polyline points="239,528 239,551" fill="none" stroke="#444444" stroke-width="1.4"/>
<polygon points="239,556 234.5,548 243.5,548" fill="#444444" stroke="#444444" stroke-width="0.5" stroke-linejoin="round"/>
<polygon points="239,556 389,591 239,626 89,591" fill="#fff6cf" stroke="#8a6d00" stroke-width="1.4" stroke-linejoin="round"/>
<text x="239" y="594.5" font-size="10" font-weight="bold" fill="#3d3000" text-anchor="middle">Isi draf sudah benar?</text>
<polyline points="239,626 239,642" fill="none" stroke="#444444" stroke-width="1.4"/>
<polyline points="123,642 355,642" fill="none" stroke="#444444" stroke-width="1.4"/>
<polyline points="123,642 123,671" fill="none" stroke="#444444" stroke-width="1.4"/>
<polygon points="123,676 118.5,668 127.5,668" fill="#444444" stroke="#444444" stroke-width="0.5" stroke-linejoin="round"/>
<rect x="18" y="676" width="210" height="81.5" rx="8" fill="#eef2f8" stroke="#1a2b4a" stroke-width="1.4"/>
<text x="28" y="689" font-size="7" font-weight="bold" fill="#1a2b4a" text-anchor="start">ANDA</text>
<text x="28" y="705.5" font-size="10.5" font-weight="bold" fill="#111111" text-anchor="start">Posting Jurnal</text>
<text x="28" y="720.5" font-size="9" fill="#1a4d8f" text-anchor="start">Menu: Akuntansi &gt; Jurnal &gt; (klik draf)</text>
<text x="28" y="735.5" font-size="8.6" font-style="italic" fill="#555555" text-anchor="start">Periode bulan itu harus Terbuka atau Dibuka</text>
<text x="28" y="747" font-size="8.6" font-style="italic" fill="#555555" text-anchor="start">Kembali</text>
<polyline points="123,757.5 123,780.5" fill="none" stroke="#444444" stroke-width="1.4"/>
<polygon points="123,785.5 118.5,777.5 127.5,777.5" fill="#444444" stroke="#444444" stroke-width="0.5" stroke-linejoin="round"/>
<rect x="18" y="785.5" width="210" height="68.5" rx="8" fill="#e6f2e8" stroke="#2f5233" stroke-width="1.4"/>
<text x="28" y="798.5" font-size="7" font-weight="bold" fill="#2f5233" text-anchor="start">SISTEM (OTOMATIS)</text>
<text x="28" y="815" font-size="10.5" font-weight="bold" fill="#111111" text-anchor="start">Status Terposting, bernomor JV, ikut</text>
<text x="28" y="828.5" font-size="10.5" font-weight="bold" fill="#111111" text-anchor="start">ke laporan</text>
<text x="28" y="843.5" font-size="8.6" font-style="italic" fill="#555555" text-anchor="start">Laba Rugi, Neraca, dan Buku Besar berubah</text>
<rect x="111.8" y="651" width="22.4" height="15" rx="7.5" fill="#ffffff" stroke="#8a6d00" stroke-width="1"/>
<text x="123" y="662" font-size="8.5" font-weight="bold" fill="#3d3000" text-anchor="middle">Ya</text>
<polyline points="355,642 355,671" fill="none" stroke="#444444" stroke-width="1.4"/>
<polygon points="355,676 350.5,668 359.5,668" fill="#444444" stroke="#444444" stroke-width="0.5" stroke-linejoin="round"/>
<rect x="250" y="676" width="210" height="55" rx="8" fill="#eef2f8" stroke="#1a2b4a" stroke-width="1.4"/>
<text x="260" y="689" font-size="7" font-weight="bold" fill="#1a2b4a" text-anchor="start">ANDA</text>
<text x="260" y="705.5" font-size="10.5" font-weight="bold" fill="#111111" text-anchor="start">Buang Draf</text>
<text x="260" y="720.5" font-size="8.6" font-style="italic" fill="#555555" text-anchor="start">Dihapus permanen tanpa dampak akuntansi</text>
<rect x="337.66" y="651" width="34.68" height="15" rx="7.5" fill="#ffffff" stroke="#8a6d00" stroke-width="1"/>
<text x="355" y="662" font-size="8.5" font-weight="bold" fill="#3d3000" text-anchor="middle">Salah</text>
<polyline points="123,854 123,874" fill="none" stroke="#444444" stroke-width="1.4"/>
<polyline points="355,731 355,874" fill="none" stroke="#444444" stroke-width="1.4"/>
<polyline points="123,874 355,874" fill="none" stroke="#444444" stroke-width="1.4"/>
<polyline points="239,874 239,897" fill="none" stroke="#444444" stroke-width="1.4"/>
<polygon points="239,902 234.5,894 243.5,894" fill="#444444" stroke="#444444" stroke-width="0.5" stroke-linejoin="round"/>
<polygon points="239,902 389,937 239,972 89,937" fill="#fff6cf" stroke="#8a6d00" stroke-width="1.4" stroke-linejoin="round"/>
<text x="239" y="934" font-size="10" font-weight="bold" fill="#3d3000" text-anchor="middle">Jurnal yang sudah diposting</text>
<text x="239" y="947" font-size="10" font-weight="bold" fill="#3d3000" text-anchor="middle">ternyata salah?</text>
<polyline points="239,972 239,988" fill="none" stroke="#444444" stroke-width="1.4"/>
<polyline points="123,988 355,988" fill="none" stroke="#444444" stroke-width="1.4"/>
<polyline points="123,988 123,1017" fill="none" stroke="#444444" stroke-width="1.4"/>
<polygon points="123,1022 118.5,1014 127.5,1014" fill="#444444" stroke="#444444" stroke-width="0.5" stroke-linejoin="round"/>
<rect x="18" y="1022" width="210" height="93.5" rx="8" fill="#eef2f8" stroke="#1a2b4a" stroke-width="1.4"/>
<text x="28" y="1035" font-size="7" font-weight="bold" fill="#1a2b4a" text-anchor="start">ANDA</text>
<text x="28" y="1051.5" font-size="10.5" font-weight="bold" fill="#111111" text-anchor="start">Balik Jurnal (Reverse)</text>
<text x="28" y="1066.5" font-size="9" fill="#1a4d8f" text-anchor="start">Menu: Akuntansi &gt; Jurnal &gt; (klik jurnal</text>
<text x="28" y="1078.5" font-size="9" fill="#1a4d8f" text-anchor="start">Terposting)</text>
<text x="28" y="1093.5" font-size="8.6" font-style="italic" fill="#555555" text-anchor="start">Isi Tanggal Pembalikan dan Alasan (minimal 5</text>
<text x="28" y="1105" font-size="8.6" font-style="italic" fill="#555555" text-anchor="start">karakter)</text>
<polyline points="123,1115.5 123,1138.5" fill="none" stroke="#444444" stroke-width="1.4"/>
<polygon points="123,1143.5 118.5,1135.5 127.5,1135.5" fill="#444444" stroke="#444444" stroke-width="0.5" stroke-linejoin="round"/>
<rect x="18" y="1143.5" width="210" height="68.5" rx="8" fill="#e6f2e8" stroke="#2f5233" stroke-width="1.4"/>
<text x="28" y="1156.5" font-size="7" font-weight="bold" fill="#2f5233" text-anchor="start">SISTEM (OTOMATIS)</text>
<text x="28" y="1173" font-size="10.5" font-weight="bold" fill="#111111" text-anchor="start">Jurnal Pembalik dibuat, debit dan</text>
<text x="28" y="1186.5" font-size="10.5" font-weight="bold" fill="#111111" text-anchor="start">kredit tertukar</text>
<text x="28" y="1201.5" font-size="8.6" font-style="italic" fill="#555555" text-anchor="start">Jurnal asli tetap tercatat sebagai riwayat</text>
<polyline points="123,1212 123,1235" fill="none" stroke="#444444" stroke-width="1.4"/>
<polygon points="123,1240 118.5,1232 127.5,1232" fill="#444444" stroke="#444444" stroke-width="0.5" stroke-linejoin="round"/>
<rect x="18" y="1240" width="210" height="69" rx="8" fill="#eef2f8" stroke="#1a2b4a" stroke-width="1.4"/>
<text x="28" y="1253" font-size="7" font-weight="bold" fill="#1a2b4a" text-anchor="start">ANDA</text>
<text x="28" y="1269.5" font-size="10.5" font-weight="bold" fill="#111111" text-anchor="start">Buat Jurnal Manual pengganti yang</text>
<text x="28" y="1283" font-size="10.5" font-weight="bold" fill="#111111" text-anchor="start">benar</text>
<text x="28" y="1298" font-size="9" fill="#1a4d8f" text-anchor="start">Menu: Akuntansi &gt; Jurnal &gt; Jurnal Manual</text>
<rect x="111.8" y="997" width="22.4" height="15" rx="7.5" fill="#ffffff" stroke="#8a6d00" stroke-width="1"/>
<text x="123" y="1008" font-size="8.5" font-weight="bold" fill="#3d3000" text-anchor="middle">Ya</text>
<rect x="337.9" y="997" width="34.2" height="15" rx="7.5" fill="#ffffff" stroke="#8a6d00" stroke-width="1"/>
<text x="355" y="1008" font-size="8.5" font-weight="bold" fill="#3d3000" text-anchor="middle">Tidak</text>
<polyline points="123,1309 123,1329" fill="none" stroke="#444444" stroke-width="1.4"/>
<polyline points="355,988 355,1329" fill="none" stroke="#444444" stroke-width="1.4"/>
<polyline points="123,1329 355,1329" fill="none" stroke="#444444" stroke-width="1.4"/>
<polyline points="239,1329 239,1352" fill="none" stroke="#444444" stroke-width="1.4"/>
<polygon points="239,1357 234.5,1349 243.5,1349" fill="#444444" stroke="#444444" stroke-width="0.5" stroke-linejoin="round"/>
<rect x="134" y="1357" width="210" height="55.5" rx="18" fill="#2f5233" stroke="#2f5233" stroke-width="1.4"/>
<text x="239" y="1375.5" font-size="10.5" font-weight="bold" fill="#ffffff" text-anchor="middle">Selesai</text>
<text x="239" y="1389" font-size="8.6" font-style="italic" fill="#e9efe9" text-anchor="middle">Draf yang dibiarkan menahan penutupan</text>
<text x="239" y="1400.5" font-size="8.6" font-style="italic" fill="#e9efe9" text-anchor="middle">periode bulan itu: posting atau buang</text>
<rect x="66.95" y="1438.5" width="12" height="10" rx="2" fill="#fdf2e3" stroke="#b5791a" stroke-width="1"/>
<text x="82.95" y="1446.5" font-size="8" fill="#444444" text-anchor="start">Pelanggan</text>
<rect x="137.2" y="1438.5" width="12" height="10" rx="2" fill="#eef2f8" stroke="#1a2b4a" stroke-width="1"/>
<text x="153.2" y="1446.5" font-size="8" fill="#444444" text-anchor="start">Anda (pengguna aplikasi)</text>
<rect x="259.91" y="1438.5" width="12" height="10" rx="2" fill="#e6f2e8" stroke="#2f5233" stroke-width="1"/>
<text x="275.91" y="1446.5" font-size="8" fill="#444444" text-anchor="start">Sistem (otomatis)</text>
<polygon points="360.14,1437.5 366.14,1443.5 360.14,1449.5 354.14,1443.5" fill="#fff6cf" stroke="#8a6d00" stroke-width="1" stroke-linejoin="round"/>
<text x="370.14" y="1446.5" font-size="8" fill="#444444" text-anchor="start">Pertanyaan</text>
</svg>
