<svg xmlns="http://www.w3.org/2000/svg" viewBox="0 0 560 618" width="560" height="618" role="img" aria-label="Invoice atau Pembayaran Salah: Dibatalkan, Dikoreksi, atau Dibalik?" font-family="Helvetica, Arial, sans-serif">
<!-- source: alur.json sha256:21ee321cc2268b20 (dibuat oleh scripts/guide/build_flow_diagrams.py; jangan diedit tangan) -->
<title>Invoice atau Pembayaran Salah: Dibatalkan, Dikoreksi, atau Dibalik?</title>
<rect width="100%" height="100%" fill="#ffffff"/>
<rect x="200" y="18" width="160" height="43" rx="18" fill="#1a2b4a" stroke="#1a2b4a" stroke-width="1.4"/>
<text x="280" y="36.5" font-size="10.5" font-weight="bold" fill="#ffffff" text-anchor="middle">Ada invoice atau</text>
<text x="280" y="50" font-size="10.5" font-weight="bold" fill="#ffffff" text-anchor="middle">pembayaran yang salah</text>
<polyline points="280,61 280,84" fill="none" stroke="#444444" stroke-width="1.4"/>
<polygon points="280,89 275.5,81 284.5,81" fill="#444444" stroke="#444444" stroke-width="0.5" stroke-linejoin="round"/>
<polygon points="280,89 430,124 280,159 130,124" fill="#fff6cf" stroke="#8a6d00" stroke-width="1.4" stroke-linejoin="round"/>
<text x="280" y="127.5" font-size="10" font-weight="bold" fill="#3d3000" text-anchor="middle">Bagaimana keadaan invoicenya?</text>
<polyline points="280,159 280,175" fill="none" stroke="#444444" stroke-width="1.4"/>
<polyline points="98,175 462,175" fill="none" stroke="#444444" stroke-width="1.4"/>
<polyline points="98,175 98,204" fill="none" stroke="#444444" stroke-width="1.4"/>
<polygon points="98,209 93.5,201 102.5,201" fill="#444444" stroke="#444444" stroke-width="0.5" stroke-linejoin="round"/>
<rect x="18" y="209" width="160" height="95.5" rx="8" fill="#eef2f8" stroke="#1a2b4a" stroke-width="1.4"/>
<text x="28" y="222" font-size="7" font-weight="bold" fill="#1a2b4a" text-anchor="start">ANDA</text>
<text x="28" y="238.5" font-size="10.5" font-weight="bold" fill="#111111" text-anchor="start">Ubah Draf atau Batalkan</text>
<text x="28" y="252" font-size="10.5" font-weight="bold" fill="#111111" text-anchor="start">Draf</text>
<text x="28" y="267" font-size="9" fill="#1a4d8f" text-anchor="start">Menu: Buka draf &gt; Ubah Draf</text>
<text x="28" y="279" font-size="9" fill="#1a4d8f" text-anchor="start">atau Batalkan Draf</text>
<text x="28" y="294" font-size="8.6" font-style="italic" fill="#555555" text-anchor="start">Tanpa dampak akuntansi</text>
<rect x="70.75" y="184" width="54.51" height="15" rx="7.5" fill="#ffffff" stroke="#8a6d00" stroke-width="1"/>
<text x="98" y="195" font-size="8.5" font-weight="bold" fill="#3d3000" text-anchor="middle">Masih draf</text>
<polyline points="280,175 280,204" fill="none" stroke="#444444" stroke-width="1.4"/>
<polygon points="280,209 275.5,201 284.5,201" fill="#444444" stroke="#444444" stroke-width="0.5" stroke-linejoin="round"/>
<rect x="200" y="209" width="160" height="120.5" rx="8" fill="#eef2f8" stroke="#1a2b4a" stroke-width="1.4"/>
<text x="210" y="222" font-size="7" font-weight="bold" fill="#1a2b4a" text-anchor="start">ANDA</text>
<text x="210" y="238.5" font-size="10.5" font-weight="bold" fill="#111111" text-anchor="start">Koreksi Invoice (isi salah)</text>
<text x="210" y="252" font-size="10.5" font-weight="bold" fill="#111111" text-anchor="start">atau Batalkan Invoice</text>
<text x="210" y="265.5" font-size="10.5" font-weight="bold" fill="#111111" text-anchor="start">(tidak jadi beli)</text>
<text x="210" y="280.5" font-size="9" fill="#1a4d8f" text-anchor="start">Menu: Buka invoice &gt; Koreksi</text>
<text x="210" y="292.5" font-size="9" fill="#1a4d8f" text-anchor="start">Invoice atau Batalkan Invoice</text>
<text x="210" y="307.5" font-size="8.6" font-style="italic" fill="#555555" text-anchor="start">Hanya OWNER. Alasan minimal 5</text>
<text x="210" y="319" font-size="8.6" font-style="italic" fill="#555555" text-anchor="start">karakter</text>
<polyline points="280,329.5 280,352.5" fill="none" stroke="#444444" stroke-width="1.4"/>
<polygon points="280,357.5 275.5,349.5 284.5,349.5" fill="#444444" stroke="#444444" stroke-width="0.5" stroke-linejoin="round"/>
<rect x="200" y="357.5" width="160" height="80" rx="8" fill="#e6f2e8" stroke="#2f5233" stroke-width="1.4"/>
<text x="210" y="370.5" font-size="7" font-weight="bold" fill="#2f5233" text-anchor="start">SISTEM (OTOMATIS)</text>
<text x="210" y="387" font-size="10.5" font-weight="bold" fill="#111111" text-anchor="start">Invoice lama menjadi</text>
<text x="210" y="400.5" font-size="10.5" font-weight="bold" fill="#111111" text-anchor="start">Dibatalkan (void)</text>
<text x="210" y="415.5" font-size="8.6" font-style="italic" fill="#555555" text-anchor="start">Koreksi otomatis membuka draf</text>
<text x="210" y="427" font-size="8.6" font-style="italic" fill="#555555" text-anchor="start">pengganti</text>
<rect x="231.02" y="184" width="97.97" height="15" rx="7.5" fill="#ffffff" stroke="#8a6d00" stroke-width="1"/>
<text x="280" y="195" font-size="8.5" font-weight="bold" fill="#3d3000" text-anchor="middle">Terbit, belum dibayar</text>
<polyline points="462,175 462,204" fill="none" stroke="#444444" stroke-width="1.4"/>
<polygon points="462,209 457.5,201 466.5,201" fill="#444444" stroke="#444444" stroke-width="0.5" stroke-linejoin="round"/>
<rect x="382" y="209" width="160" height="93" rx="8" fill="#eef2f8" stroke="#1a2b4a" stroke-width="1.4"/>
<text x="392" y="222" font-size="7" font-weight="bold" fill="#1a2b4a" text-anchor="start">ANDA</text>
<text x="392" y="238.5" font-size="10.5" font-weight="bold" fill="#111111" text-anchor="start">Balik Pembayaran lebih</text>
<text x="392" y="252" font-size="10.5" font-weight="bold" fill="#111111" text-anchor="start">dulu</text>
<text x="392" y="267" font-size="9" fill="#1a4d8f" text-anchor="start">Menu: Penjualan &gt; Pembayaran</text>
<text x="392" y="279" font-size="9" fill="#1a4d8f" text-anchor="start">Diterima &gt; (klik pembayaran) &gt;</text>
<text x="392" y="291" font-size="9" fill="#1a4d8f" text-anchor="start">Balik Pembayaran</text>
<polyline points="462,302 462,325" fill="none" stroke="#444444" stroke-width="1.4"/>
<polygon points="462,330 457.5,322 466.5,322" fill="#444444" stroke="#444444" stroke-width="0.5" stroke-linejoin="round"/>
<rect x="382" y="330" width="160" height="68.5" rx="8" fill="#eef2f8" stroke="#1a2b4a" stroke-width="1.4"/>
<text x="392" y="343" font-size="7" font-weight="bold" fill="#1a2b4a" text-anchor="start">ANDA</text>
<text x="392" y="359.5" font-size="10.5" font-weight="bold" fill="#111111" text-anchor="start">Lalu Koreksi atau Batalkan</text>
<text x="392" y="373" font-size="10.5" font-weight="bold" fill="#111111" text-anchor="start">invoice</text>
<text x="392" y="388" font-size="8.6" font-style="italic" fill="#555555" text-anchor="start">Seperti jalur di sebelahnya</text>
<rect x="413.02" y="184" width="97.97" height="15" rx="7.5" fill="#ffffff" stroke="#8a6d00" stroke-width="1"/>
<text x="462" y="195" font-size="8.5" font-weight="bold" fill="#3d3000" text-anchor="middle">Terbit, sudah dibayar</text>
<polyline points="98,304.5 98,457.5" fill="none" stroke="#444444" stroke-width="1.4"/>
<polyline points="280,437.5 280,457.5" fill="none" stroke="#444444" stroke-width="1.4"/>
<polyline points="462,398.5 462,457.5" fill="none" stroke="#444444" stroke-width="1.4"/>
<polyline points="98,457.5 462,457.5" fill="none" stroke="#444444" stroke-width="1.4"/>
<polyline points="280,457.5 280,480.5" fill="none" stroke="#444444" stroke-width="1.4"/>
<polygon points="280,485.5 275.5,477.5 284.5,477.5" fill="#444444" stroke="#444444" stroke-width="0.5" stroke-linejoin="round"/>
<rect x="200" y="485.5" width="160" height="78.5" rx="18" fill="#2f5233" stroke="#2f5233" stroke-width="1.4"/>
<text x="280" y="504" font-size="10.5" font-weight="bold" fill="#ffffff" text-anchor="middle">Selesai</text>
<text x="280" y="517.5" font-size="8.6" font-style="italic" fill="#e9efe9" text-anchor="middle">Bila uang benar-benar</text>
<text x="280" y="529" font-size="8.6" font-style="italic" fill="#e9efe9" text-anchor="middle">dikembalikan ke pelanggan:</text>
<text x="280" y="540.5" font-size="8.6" font-style="italic" fill="#e9efe9" text-anchor="middle">Refund ke Pelanggan di detail</text>
<text x="280" y="552" font-size="8.6" font-style="italic" fill="#e9efe9" text-anchor="middle">pembayaran</text>
<rect x="107.95" y="590" width="12" height="10" rx="2" fill="#fdf2e3" stroke="#b5791a" stroke-width="1"/>
<text x="123.95" y="598" font-size="8" fill="#444444" text-anchor="start">Pelanggan</text>
<rect x="178.2" y="590" width="12" height="10" rx="2" fill="#eef2f8" stroke="#1a2b4a" stroke-width="1"/>
<text x="194.2" y="598" font-size="8" fill="#444444" text-anchor="start">Anda (pengguna aplikasi)</text>
<rect x="300.91" y="590" width="12" height="10" rx="2" fill="#e6f2e8" stroke="#2f5233" stroke-width="1"/>
<text x="316.91" y="598" font-size="8" fill="#444444" text-anchor="start">Sistem (otomatis)</text>
<polygon points="401.14,589 407.14,595 401.14,601 395.14,595" fill="#fff6cf" stroke="#8a6d00" stroke-width="1" stroke-linejoin="round"/>
<text x="411.14" y="598" font-size="8" fill="#444444" text-anchor="start">Pertanyaan</text>
</svg>
